<svg width="485" height="485" viewBox="0 0 485 485" fill="none" xmlns="http://www.w3.org/2000/svg">
<g filter="url(#filter0_n_1_16)">
<circle cx="238.538" cy="258.853" r="170" stroke="white" stroke-width="4"/>
</g>
<g filter="url(#filter1_n_1_16)">
<path d="M219.102 390.044C218.983 390.657 218.755 391.266 218.416 391.869C217.234 393.869 215.177 395.047 212.244 395.405C212.963 395.639 213.642 395.913 214.281 396.227C217.805 397.925 219.238 400.477 218.581 403.883C218.286 405.417 217.553 406.74 216.384 407.851C214.033 409.976 210.756 410.633 206.552 409.822L190.811 406.787L191.05 405.544L194.732 406.254L199.578 381.123L195.896 380.413L196.136 379.171L211.048 382.046C212.736 382.372 214.204 382.846 215.453 383.468C218.436 384.998 219.652 387.19 219.102 390.044ZM208.231 382.792L206.022 382.366L203.945 393.136L206.523 393.633C207.075 393.74 207.609 393.779 208.123 393.751C210.389 393.551 211.801 392.009 212.357 389.125C213.001 385.621 211.625 383.51 208.231 382.792ZM207.471 395.153L203.697 394.425L201.176 407.497L204.26 408.091C204.659 408.168 205.064 408.215 205.475 408.23C208.754 408.385 210.797 406.376 211.601 402.203C211.779 401.282 211.807 400.397 211.684 399.546C211.33 397.09 209.926 395.626 207.471 395.153ZM260.176 412.771L247.63 413.413L247.565 412.149L250.889 411.979L246.918 403.171L237.602 403.648L234.691 412.809L237.313 412.674C237.5 412.665 237.673 412.671 237.83 412.695C238.239 412.736 238.463 413.132 238.501 413.881L229.887 414.322L229.823 413.058L232.819 412.904L241.697 385.555L245.162 385.378L257.583 411.636L258.988 411.564C259.175 411.555 259.347 411.562 259.505 411.585C259.914 411.627 260.137 412.022 260.176 412.771ZM246.284 401.795L241.566 391.241L238.091 402.215L246.284 401.795ZM286.555 408.333L272.959 411.923L272.636 410.7L276.261 409.742L269.727 384.997L266.102 385.954L265.778 384.73L280.916 380.733C283.333 380.095 285.539 380.127 287.534 380.828C289.888 381.661 291.359 383.196 291.95 385.432C292.125 386.096 292.206 386.77 292.192 387.452C292.145 390.212 290.651 392.449 287.71 394.163L297.801 404.103L298.39 403.948C298.541 403.908 298.696 403.883 298.855 403.873C299.363 403.836 299.704 404.15 299.88 404.815L291.915 406.967L281.871 396.286L279.65 396.873L282.606 408.067L286.232 407.11L286.555 408.333ZM278.52 382.675L276.072 383.321L279.291 395.513L282.101 394.771C283.008 394.532 283.749 394.094 284.324 393.457C285.632 392.045 285.943 390.04 285.257 387.441C285.033 386.595 284.712 385.807 284.293 385.078C282.922 382.822 280.997 382.021 278.52 382.675Z" fill="white"/>
</g>
<g filter="url(#filter2_n_1_16)">
<path d="M127.005 201.103L99.0927 182.398L102.059 177.972L125.904 193.952L132.611 183.943L136.678 186.669L127.005 201.103ZM164.465 159.227L159.474 163.13L152.521 157.354L146.433 162.114L150.36 170.255L145.633 173.95L131.367 142.454L137.228 137.872L164.465 159.227ZM143.995 156.892L148.117 153.669L138.469 145.615L143.995 156.892ZM210.025 110.922C209.488 110.817 208.941 110.747 208.383 110.71C207.857 110.669 207.336 110.658 206.821 110.68C206.305 110.701 205.811 110.751 205.337 110.831C204.359 110.994 203.496 111.269 202.749 111.653C202.034 112.032 201.506 112.559 201.164 113.232C200.823 113.906 200.745 114.795 200.929 115.9L203.497 131.239C203.661 132.217 203.969 132.993 204.422 133.566C204.901 134.102 205.514 134.47 206.261 134.669C207.003 134.837 207.895 134.834 208.936 134.66C209.567 134.554 210.135 134.361 210.64 134.082C211.14 133.772 211.55 133.411 211.871 133C212.186 132.558 212.396 132.069 212.501 131.532C212.632 130.959 212.647 130.372 212.547 129.772L212.476 129.346L209.777 129.798L207.288 125.104L216.899 123.496L219.284 137.746L215.638 138.356L215.18 137.07C214.717 137.602 214.147 138.07 213.468 138.476C212.785 138.85 212.104 139.142 211.425 139.353C210.752 139.595 210.194 139.754 209.753 139.828C207.954 140.129 206.246 140.106 204.631 139.76C203.047 139.409 201.687 138.647 200.55 137.475C199.413 136.302 198.664 134.643 198.305 132.497L195.738 117.158C195.368 114.949 195.459 113.068 196.01 111.516C196.588 109.927 197.56 108.661 198.927 107.718C200.321 106.739 202.059 106.075 204.142 105.726C204.931 105.594 205.699 105.53 206.446 105.535C207.225 105.534 207.982 105.602 208.719 105.739C209.482 105.838 210.205 105.993 210.889 106.203L210.025 110.922ZM248.833 103.339C250.074 103.469 251.297 103.775 252.501 104.255C253.706 104.736 254.772 105.459 255.7 106.425C256.628 107.391 257.313 108.686 257.754 110.309C258.198 111.9 258.296 113.873 258.049 116.228C257.852 118.106 257.506 119.71 257.013 121.042C256.551 122.377 255.969 123.474 255.267 124.334C254.597 125.197 253.852 125.858 253.032 126.319L255.969 137.873L250.336 137.282L248.03 127.531C247.835 127.543 247.643 127.539 247.452 127.519C247.261 127.499 247.07 127.479 246.879 127.459C246.688 127.439 246.497 127.419 246.306 127.399L241.198 126.862L240.215 136.219L234.917 135.662L238.426 102.246L248.833 103.339ZM244.875 122.181C246.116 122.311 247.191 122.343 248.099 122.278C249.006 122.212 249.772 121.971 250.395 121.554C251.021 121.105 251.512 120.416 251.867 119.488C252.253 118.564 252.532 117.29 252.702 115.667C252.859 114.171 252.84 112.978 252.644 112.089C252.483 111.171 252.138 110.475 251.608 110.001C251.082 109.496 250.38 109.132 249.502 108.911C248.625 108.69 247.565 108.515 246.324 108.385L243.173 108.054L241.725 121.85L244.875 122.181ZM279.575 112.557L281.195 107.784L289.286 110.53L278.487 142.348L273.442 140.635L282.59 113.681L279.575 112.557ZM293.513 147.897L310.933 119.166L324.683 127.503L321.946 132.018L312.752 126.443L308.372 133.667L313.995 137.076L310.109 140.614L305.759 137.976L300.582 146.514L309.694 152.039L307.181 156.184L293.513 147.897ZM349.161 153.266L329.04 173.128L325.331 169.37L345.451 149.508L340.528 144.521L344.32 140.778L357.943 154.579L354.151 158.322L349.161 153.266ZM353.673 206.314L350.383 200.899L356.934 194.672L352.921 188.068L344.376 191.013L341.261 185.886L374.213 175.412L378.076 181.77L353.673 206.314ZM358.394 186.259L361.11 190.731L370.241 182.094L358.394 186.259Z" fill="white"/>
</g>
<g filter="url(#filter3_n_1_16)">
<circle cx="238.539" cy="258.854" r="111.5" stroke="white" stroke-width="3"/>
</g>
<g filter="url(#filter4_n_1_16)">
<path d="M155.352 313.622L167.68 316.87H178.468L182.063 319.577L186.686 321.743L193.878 319.577L200.042 321.743C199.517 322.615 217.951 322.17 216.48 319.577C215.009 316.984 212.37 316.87 212.37 316.87L211.343 302.252L212.37 292.507L216.48 286.01L213.911 277.348V269.227L217.507 273.016V265.978L220.075 256.774L226.24 249.736L234.458 244.863C240.29 242.035 242.275 239.155 244.218 232.411C246.577 230.287 247.639 230.099 248.841 232.411L252.951 241.073L259.629 249.736C262.91 254.702 263.322 257.024 262.197 260.564C260.594 271.389 257.574 275.182 261.17 282.22C264.765 289.258 267.334 287.634 267.334 287.634L271.957 294.131C271.957 294.131 270.193 293.697 271.957 296.838C273.721 299.979 268.03 292.771 267.334 294.131C265.907 296.532 266.085 298.111 271.957 302.252C271.957 302.252 271.443 317.411 274.525 319.577C277.607 321.743 288.106 319.189 295.586 321.743C300.541 319.22 303.734 318.104 310.483 316.87C319.832 316.985 321.27 317.953 322.297 313.622C323.325 309.29 324.126 301.703 324.352 294.131L322.297 283.844L314.592 256.774L298.668 232.411L295.586 220.5L285.313 203.717L259.629 174.481L246.273 170.149L237.027 178.271L228.808 184.226L211.343 214.003C204.123 215.488 201.467 217.933 197.987 223.749C193.621 238.906 192.327 247.296 190.796 262.188C186.41 264.287 183.422 269.069 182.063 269.227C180.705 269.384 171.908 283.453 173.844 283.844H170.762C165.152 292.805 161.665 296.348 155.352 302.252V313.622Z" fill="white" fill-opacity="0.8"/>
<path d="M155.352 313.622L167.68 316.87H178.468L182.063 319.577L186.686 321.743L193.878 319.577L200.042 321.743C199.517 322.615 217.951 322.17 216.48 319.577C215.009 316.984 212.37 316.87 212.37 316.87L211.343 302.252L212.37 292.507L216.48 286.01L213.911 277.348V269.227L217.507 273.016V265.978L220.075 256.774L226.24 249.736L234.458 244.863C240.29 242.035 242.275 239.155 244.218 232.411C246.577 230.287 247.639 230.099 248.841 232.411L252.951 241.073L259.629 249.736C262.91 254.702 263.322 257.024 262.197 260.564C260.594 271.389 257.574 275.182 261.17 282.22C264.765 289.258 267.334 287.634 267.334 287.634L271.957 294.131C271.957 294.131 270.193 293.697 271.957 296.838C273.721 299.979 268.03 292.771 267.334 294.131C265.907 296.532 266.085 298.111 271.957 302.252C271.957 302.252 271.443 317.411 274.525 319.577C277.607 321.743 288.106 319.189 295.586 321.743C300.541 319.22 303.734 318.104 310.483 316.87C319.832 316.985 321.27 317.953 322.297 313.622C323.325 309.29 324.126 301.703 324.352 294.131L322.297 283.844L314.592 256.774L298.668 232.411L295.586 220.5L285.313 203.717L259.629 174.481L246.273 170.149L237.027 178.271L228.808 184.226L211.343 214.003C204.123 215.488 201.467 217.933 197.987 223.749C193.621 238.906 192.327 247.296 190.796 262.188C186.41 264.287 183.422 269.069 182.063 269.227C180.705 269.384 171.908 283.453 173.844 283.844H170.762C165.152 292.805 161.665 296.348 155.352 302.252V313.622Z" stroke="white"/>
</g>
<defs>
<filter id="filter0_n_1_16" x="66.5382" y="86.8533" width="344" height="344" filterUnits="userSpaceOnUse" color-interpolation-filters="sRGB">
<feFlood flood-opacity="0" result="BackgroundImageFix"/>
<feBlend mode="normal" in="SourceGraphic" in2="BackgroundImageFix" result="shape"/>
<feTurbulence type="fractalNoise" baseFrequency="2 2" stitchTiles="stitch" numOctaves="3" result="noise" seed="9736" />
<feColorMatrix in="noise" type="luminanceToAlpha" result="alphaNoise" />
<feComponentTransfer in="alphaNoise" result="coloredNoise1">
<feFuncA type="discrete" tableValues="1 1 1 1 1 1 1 1 1 1 1 1 1 1 1 1 1 1 1 1 1 1 1 1 1 1 1 1 1 1 1 1 1 1 1 1 1 1 1 1 1 1 1 1 1 1 1 1 1 1 1 0 0 0 0 0 0 0 0 0 0 0 0 0 0 0 0 0 0 0 0 0 0 0 0 0 0 0 0 0 0 0 0 0 0 0 0 0 0 0 0 0 0 0 0 0 0 0 0 0 "/>
</feComponentTransfer>
<feComposite operator="in" in2="shape" in="coloredNoise1" result="noise1Clipped" />
<feFlood flood-color="rgba(0, 0, 0, 0.25)" result="color1Flood" />
<feComposite operator="in" in2="noise1Clipped" in="color1Flood" result="color1" />
<feMerge result="effect1_noise_1_16">
<feMergeNode in="shape" />
<feMergeNode in="color1" />
</feMerge>
</filter>
<filter id="filter1_n_1_16" x="182.541" y="347.91" width="119.628" height="91.889" filterUnits="userSpaceOnUse" color-interpolation-filters="sRGB">
<feFlood flood-opacity="0" result="BackgroundImageFix"/>
<feBlend mode="normal" in="SourceGraphic" in2="BackgroundImageFix" result="shape"/>
<feTurbulence type="fractalNoise" baseFrequency="2 2" stitchTiles="stitch" numOctaves="3" result="noise" seed="9736" />
<feColorMatrix in="noise" type="luminanceToAlpha" result="alphaNoise" />
<feComponentTransfer in="alphaNoise" result="coloredNoise1">
<feFuncA type="discrete" tableValues="1 1 1 1 1 1 1 1 1 1 1 1 1 1 1 1 1 1 1 1 1 1 1 1 1 1 1 1 1 1 1 1 1 1 1 1 1 1 1 1 1 1 1 1 1 1 1 1 1 1 1 0 0 0 0 0 0 0 0 0 0 0 0 0 0 0 0 0 0 0 0 0 0 0 0 0 0 0 0 0 0 0 0 0 0 0 0 0 0 0 0 0 0 0 0 0 0 0 0 0 "/>
</feComponentTransfer>
<feComposite operator="in" in2="shape" in="coloredNoise1" result="noise1Clipped" />
<feFlood flood-color="rgba(0, 0, 0, 0.25)" result="color1Flood" />
<feComposite operator="in" in2="noise1Clipped" in="color1Flood" result="color1" />
<feMerge result="effect1_noise_1_16">
<feMergeNode in="shape" />
<feMergeNode in="color1" />
</feMerge>
</filter>
<filter id="filter2_n_1_16" x="96.9872" y="83.8775" width="294.651" height="152.671" filterUnits="userSpaceOnUse" color-interpolation-filters="sRGB">
<feFlood flood-opacity="0" result="BackgroundImageFix"/>
<feBlend mode="normal" in="SourceGraphic" in2="BackgroundImageFix" result="shape"/>
<feTurbulence type="fractalNoise" baseFrequency="2 2" stitchTiles="stitch" numOctaves="3" result="noise" seed="2548" />
<feColorMatrix in="noise" type="luminanceToAlpha" result="alphaNoise" />
<feComponentTransfer in="alphaNoise" result="coloredNoise1">
<feFuncA type="discrete" tableValues="1 1 1 1 1 1 1 1 1 1 1 1 1 1 1 1 1 1 1 1 1 1 1 1 1 1 1 1 1 1 1 1 1 1 1 1 1 1 1 1 1 1 1 1 1 1 1 1 1 1 1 0 0 0 0 0 0 0 0 0 0 0 0 0 0 0 0 0 0 0 0 0 0 0 0 0 0 0 0 0 0 0 0 0 0 0 0 0 0 0 0 0 0 0 0 0 0 0 0 0 "/>
</feComponentTransfer>
<feComposite operator="in" in2="shape" in="coloredNoise1" result="noise1Clipped" />
<feFlood flood-color="rgba(0, 0, 0, 0.25)" result="color1Flood" />
<feComposite operator="in" in2="noise1Clipped" in="color1Flood" result="color1" />
<feMerge result="effect1_noise_1_16">
<feMergeNode in="shape" />
<feMergeNode in="color1" />
</feMerge>
</filter>
<filter id="filter3_n_1_16" x="125.539" y="145.854" width="226" height="226" filterUnits="userSpaceOnUse" color-interpolation-filters="sRGB">
<feFlood flood-opacity="0" result="BackgroundImageFix"/>
<feBlend mode="normal" in="SourceGraphic" in2="BackgroundImageFix" result="shape"/>
<feTurbulence type="fractalNoise" baseFrequency="2 2" stitchTiles="stitch" numOctaves="3" result="noise" seed="2548" />
<feColorMatrix in="noise" type="luminanceToAlpha" result="alphaNoise" />
<feComponentTransfer in="alphaNoise" result="coloredNoise1">
<feFuncA type="discrete" tableValues="1 1 1 1 1 1 1 1 1 1 1 1 1 1 1 1 1 1 1 1 1 1 1 1 1 1 1 1 1 1 1 1 1 1 1 1 1 1 1 1 1 1 1 1 1 1 1 1 1 1 1 0 0 0 0 0 0 0 0 0 0 0 0 0 0 0 0 0 0 0 0 0 0 0 0 0 0 0 0 0 0 0 0 0 0 0 0 0 0 0 0 0 0 0 0 0 0 0 0 0 "/>
</feComponentTransfer>
<feComposite operator="in" in2="shape" in="coloredNoise1" result="noise1Clipped" />
<feFlood flood-color="rgba(0, 0, 0, 0.25)" result="color1Flood" />
<feComposite operator="in" in2="noise1Clipped" in="color1Flood" result="color1" />
<feMerge result="effect1_noise_1_16">
<feMergeNode in="shape" />
<feMergeNode in="color1" />
</feMerge>
</filter>
<filter id="filter4_n_1_16" x="154.852" y="169.586" width="170.001" height="153.063" filterUnits="userSpaceOnUse" color-interpolation-filters="sRGB">
<feFlood flood-opacity="0" result="BackgroundImageFix"/>
<feBlend mode="normal" in="SourceGraphic" in2="BackgroundImageFix" result="shape"/>
<feTurbulence type="fractalNoise" baseFrequency="2 2" stitchTiles="stitch" numOctaves="3" result="noise" seed="5735" />
<feColorMatrix in="noise" type="luminanceToAlpha" result="alphaNoise" />
<feComponentTransfer in="alphaNoise" result="coloredNoise1">
<feFuncA type="discrete" tableValues="1 1 1 1 1 1 1 1 1 1 1 1 1 1 1 1 1 1 1 1 1 1 1 1 1 1 1 1 1 1 1 1 1 1 1 1 1 1 1 1 1 1 1 1 1 1 1 1 1 1 1 0 0 0 0 0 0 0 0 0 0 0 0 0 0 0 0 0 0 0 0 0 0 0 0 0 0 0 0 0 0 0 0 0 0 0 0 0 0 0 0 0 0 0 0 0 0 0 0 0 "/>
</feComponentTransfer>
<feComposite operator="in" in2="shape" in="coloredNoise1" result="noise1Clipped" />
<feFlood flood-color="rgba(0, 0, 0, 0.25)" result="color1Flood" />
<feComposite operator="in" in2="noise1Clipped" in="color1Flood" result="color1" />
<feMerge result="effect1_noise_1_16">
<feMergeNode in="shape" />
<feMergeNode in="color1" />
</feMerge>
</filter>
</defs>
</svg>
